<svg xmlns="http://www.w3.org/2000/svg" version="1.1" xmlns:xlink="http://www.w3.org/1999/xlink" xmlns:svgjs="http://svgjs.dev/svgjs" width="2000" height="671" viewBox="0 0 2000 671"><g transform="matrix(1,0,0,1,-1.2121212121212466,0.28303539684543466)"><svg viewBox="0 0 396 133" data-background-color="#2979ff" preserveAspectRatio="xMidYMid meet" height="671" width="2000" xmlns="http://www.w3.org/2000/svg" xmlns:xlink="http://www.w3.org/1999/xlink"><g id="tight-bounds" transform="matrix(1,0,0,1,0.2400000000000091,-0.05610090578306881)"><svg viewBox="0 0 395.52 133.11220181156614" height="133.11220181156614" width="395.52"><g><svg viewBox="0 0 672.4151492373592 226.30122635122805" height="133.11220181156614" width="395.52"><g transform="matrix(1,0,0,1,276.89514923735913,59.57260981426949)"><svg viewBox="0 0 395.52 107.15600672268907" height="107.15600672268907" width="395.52"><g id="textblocktransform"><svg viewBox="0 0 395.52 107.15600672268907" height="107.15600672268907" width="395.52" id="textblock"><g><svg viewBox="0 0 395.52 107.15600672268907" height="107.15600672268907" width="395.52"><g transform="matrix(1,0,0,1,0,0)"><svg width="395.52" viewBox="0.699999988079071 -39.599998474121094 148.74000549316406 40.29999923706055" height="107.15600672268907" data-palette-color="#ffffff"><path d="M38.7-19.95L38.7-12.5 36.2-12.5 36.2-2.5Q34-1.25 29.78-0.28 25.55 0.7 20.65 0.7L20.65 0.7Q11.3 0.7 6-4.23 0.7-9.15 0.7-19.45L0.7-19.45Q0.7-30 5.98-34.8 11.25-39.6 21.05-39.6L21.05-39.6Q25.8-39.6 29.95-38.6 34.1-37.6 36.2-36.35L36.2-36.35 36.2-24.4 23.7-24.4 23.7-26.75Q23.7-28.85 22.83-29.78 21.95-30.7 20.05-30.7L20.05-30.7Q18.15-30.7 17.28-29.78 16.4-28.85 16.4-26.75L16.4-26.75 16.4-12.15Q16.4-10.05 17.28-9.13 18.15-8.2 20.05-8.2L20.05-8.2Q21.95-8.2 22.83-9.13 23.7-10.05 23.7-12.15L23.7-12.15 23.7-12.5 21-12.5 21-19.95 38.7-19.95ZM58.9 0.7Q49.75 0.7 44.77-4.1 39.8-8.9 39.8-19.45L39.8-19.45Q39.8-30 44.77-34.8 49.75-39.6 58.9-39.6L58.9-39.6Q68.05-39.6 73.02-34.8 78-30 78-19.45L78-19.45Q78-8.9 73.02-4.1 68.05 0.7 58.9 0.7L58.9 0.7ZM58.9-8.2Q60.6-8.2 61.45-9.1 62.3-10 62.3-11.9L62.3-11.9 62.3-27Q62.3-28.9 61.45-29.8 60.6-30.7 58.9-30.7L58.9-30.7Q57.2-30.7 56.35-29.8 55.5-28.9 55.5-27L55.5-27 55.5-11.9Q55.5-9.95 56.35-9.08 57.2-8.2 58.9-8.2L58.9-8.2ZM106.45-38.9L114.9-8.2 116.9-8.2 116.9 0 97.3 0 97.3-8.2 100.3-8.2 99.5-12.2 92.7-12.2 91.9-8.2 94.9-8.2 94.9 0 77.8 0 77.8-8.2 79.8-8.2 88.25-38.9 106.45-38.9ZM95.85-27.45L93.8-17.5 98.4-17.5 96.35-27.45 95.85-27.45ZM149.44 0L118.49 0 118.49-8.2 120.99-8.2 120.99-30.7 118.49-30.7 118.49-38.9 139.59-38.9 139.59-30.7 134.99-30.7 134.99-8.2 139.49-8.2 139.49-12.8 149.44-12.8 149.44 0Z" opacity="1" transform="matrix(1,0,0,1,0,0)" fill="#ffffff" class="undefined-text-0" data-fill-palette-color="primary" id="text-0"></path></svg></g></svg></g></svg></g></svg></g><g><svg viewBox="0 0 226.30122635122805 226.30122635122805" height="226.30122635122805" width="226.30122635122805"><g><svg></svg></g><g id="icon-0"><svg viewBox="0 0 226.30122635122805 226.30122635122805" height="226.30122635122805" width="226.30122635122805"><g><path d="M0 113.151c0-62.491 50.659-113.151 113.151-113.151 62.491 0 113.151 50.659 113.15 113.151 0 62.491-50.659 113.151-113.15 113.15-62.491 0-113.151-50.659-113.151-113.15zM113.151 216.638c57.154 0 103.487-46.333 103.487-103.487 0-57.154-46.333-103.487-103.487-103.488-57.154 0-103.487 46.333-103.488 103.488 0 57.154 46.333 103.487 103.488 103.487z" data-fill-palette-color="accent" fill="#ffffff" stroke="transparent"></path></g><g transform="matrix(1,0,0,1,62.01525529411737,48.61608435153995)"><svg viewBox="0 0 102.27071576299332 129.06905764814815" height="129.06905764814815" width="102.27071576299332"><g><svg xmlns="http://www.w3.org/2000/svg" xmlns:xlink="http://www.w3.org/1999/xlink" version="1.1" x="0" y="0" viewBox="-250.70001220703125 140.98709106445312 63.399993896484375 80.01290893554688" enable-background="new -269 131 100 100" xml:space="preserve" height="129.06905764814815" width="102.27071576299332" class="icon-s-0" data-fill-palette-color="accent" id="s-0"><path d="M-200.1 163.7l-1-0.8c-1.2-1-3.1-0.6-3.8 0.8-0.3 0.7-0.6 7.7-0.6 8.9 0 0.2 0 0.6 0 0.7 0 1-0.9 1.8-1.9 1.6-0.8-0.1-1.4-0.9-1.4-1.7-0.1-12-3.7-20.4-10.5-26.7-4.1-3.8-9-7.2-10.5-4.6-0.4 0.7 0.2 2.2 0.9 4.1 1.4 4.3-2.9 11.2-9 18.1-5.7 6.5-12.8 14.5-12.8 26.4 0 16 15.1 30.5 31.7 30.5 16.6 0 31.7-14.5 31.7-30.5C-187.3 180.4-192.1 170.4-200.1 163.7zM-219 215.2c-7.2 0-13.1-5.9-13.1-13.1 0-3.6 1.4-6.8 3.8-9.2l7.2-8.6c1.1-1.3 3.2-1.3 4.3 0l7.2 8.6c2.3 2.4 3.8 5.6 3.8 9.2C-205.9 209.3-211.8 215.2-219 215.2z" fill="#ffffff" data-fill-palette-color="accent"></path></svg></g></svg></g></svg></g></svg></g></svg></g><defs></defs></svg><rect width="395.52" height="133.11220181156614" fill="none" stroke="none" visibility="hidden"></rect></g></svg></g></svg>